<svg xmlns="http://www.w3.org/2000/svg" viewBox="0 0 240 240" role="img" aria-label="Neter logo">
  <g fill="none" stroke="#111827" stroke-linecap="round" stroke-linejoin="round">
    <circle cx="120" cy="120" r="74" stroke-width="12" />
    <path d="M120 46v148" stroke-width="10" />
    <path d="M46 120h148" stroke-width="10" />
    <path d="M72 70c24 12 72 18 96 18s52-6 72-18" stroke-width="10" />
    <path d="M72 170c24-12 72-18 96-18s52 6 72 18" stroke-width="10" />
    <path d="M92 54c-14 18-22 41-22 66s8 48 22 66" stroke-width="10" />
    <path d="M148 54c14 18 22 41 22 66s-8 48-22 66" stroke-width="10" />
    <ellipse cx="120" cy="120" rx="120" ry="40" transform="rotate(38 120 120)" stroke-width="10" />
    <path d="M100 126c10-12 30-12 40 0" stroke-width="10" />
    <path d="M88 108c18-18 46-18 64 0" stroke-width="10" />
    <path d="M76 90c26-26 62-26 88 0" stroke-width="10" />
    <circle cx="120" cy="144" r="6" fill="#111827" stroke-width="0" />
  </g>
</svg>
